<svg id="Layer_1" data-name="Layer 1" xmlns="http://www.w3.org/2000/svg" xmlns:xlink="http://www.w3.org/1999/xlink" viewBox="0 0 663.94 150.49" fill="#d9f2c3">
  <path class="cls-1" d="M75.25,0a75.25,75.25,0,1,0,75.24,75.25A75.25,75.25,0,0,0,75.25,0Zm0,131.13a55.89,55.89,0,1,1,55.88-55.88A55.88,55.88,0,0,1,75.25,131.13Z"></path>
  <path class="cls-2" d="M212,19.33V39h-5.32V35.75c0-7.63-4-11.09-11.95-11.09V59.14c0,1.88.72,2.59,2.95,2.59h5.47v5.33H176.2V61.73h5.48c2.23,0,2.95-.71,2.95-2.59V24.66c-8,0-11.95,3.46-11.95,11.09V39h-5.33V19.33Z"></path>
  <path class="cls-2" d="M229.24,39.06h.15c3-3.89,6.91-6.77,12.52-6.77,6.34,0,10.22,4,10.22,10.08V59.43c0,2.09.87,2.88,2.88,2.88h4v4.75H238V62.31h2.74c2,0,2.88-.79,2.88-2.88V43c0-3.68-2.52-5-6.34-5s-8.06,4-8.06,10.29V59.43c0,2.09.87,2.88,2.88,2.88h2.81v4.75H213.76V62.31h4.11c2,0,2.88-.79,2.88-2.88V27c0-2.08-.87-2.88-2.88-2.88h-4.11V19.33h15.48Z"></path>
  <path class="cls-2" d="M267.72,51.08c-.21,5.62,1.51,11.66,8.21,11.66,5.18,0,7.77-2.66,8.71-7.63h6c-.93,8.21-5.9,13-15.47,13-11.16,0-17.06-6.26-17.06-17.92,0-10.51,6.76-17.93,16.7-17.93,11.8,0,16.77,10.58,16,18.79Zm13.39-4.75c.07-4.54-1.37-9-6.48-9-4.89,0-6.69,4.46-6.91,9Z"></path>
  <path class="cls-2" d="M346.3,18.61h5.11V38.34h-5.33c-.93-7.85-5-14.26-13.6-14.26-10.59,0-13.25,9.65-13.25,19.08s2.88,19.15,13.25,19.15c8.2,0,12.16-5.76,12.95-13.39h6.2C350.76,61.45,343.56,68.5,331,68.5c-15.12,0-23-10.65-23-26,0-13.53,8.93-24.62,23.9-24.62a20.29,20.29,0,0,1,13.1,5.26Z"></path>
  <path class="cls-2" d="M354.81,67.06V62.31h3.53c2,0,2.87-.79,2.87-2.88V27c0-2.08-.86-2.88-2.87-2.88h-3.53V19.33h14.9v40.1c0,2.09.86,2.88,2.88,2.88H376v4.75Z"></path>
  <path class="cls-2" d="M378,67.06V62.31h3.31c2,0,2.88-.79,2.88-2.88V41c0-2.09-.86-2.88-2.88-2.88H378V33.37h14.68V59.43c0,2.09.87,2.88,2.88,2.88h3.53v4.75Zm9.5-48.59a5.19,5.19,0,1,1-5.18,5.18A5.2,5.2,0,0,1,387.5,18.47Z"></path>
  <path class="cls-2" d="M416.31,39.49h.14c2.81-4.53,5.83-7.2,11.45-7.2,4.75,0,8.2,2.16,9.57,6.84,3.17-4.25,6.48-6.84,11.95-6.84s10,3.67,10,10.15v17c0,2.09.86,2.88,2.88,2.88h3.82v4.75H446V62.31h2.09c2,0,2.87-.79,2.87-2.88v-17c0-2.88-2.3-4.53-5.11-4.53-4.24,0-8,3.81-8,8.56v13c0,2.09.87,2.88,2.88,2.88h2v4.75H424.3V62.31h2.16c2,0,2.88-.79,2.88-2.88V44.31c0-3.74-.72-6.4-5-6.4s-8.06,4.24-8.06,8.56v13c0,2.09.86,2.88,2.87,2.88h2.16v4.75H400.83V62.31h4c2,0,2.88-.79,2.88-2.88V41c0-2.09-.86-2.88-2.88-2.88h-4V33.37h15.48Z"></path>
  <path class="cls-2" d="M506.1,54.54V56.7c0,8.06-3.24,11.44-9.29,11.44-3.6,0-6.7-1.51-7.27-5.33-2.67,4-7.27,5.33-11.81,5.33-5.62,0-10-2.66-10-9.14,0-14,21.6-7.2,21.6-17.35,0-4.61-3.89-5.47-7.7-5.47-2,0-5.4.65-6.7,2.37,2.67-.36,4.76.8,4.76,3.75,0,3.24-2.24,4.25-5,4.25a5.11,5.11,0,0,1-5.19-5.33c0-7.34,8.79-8.93,14.47-8.93,9.72,0,13.9,4.39,13.9,10.44V60.37c0,1.58.64,2.37,1.72,2.37s1.95-1,1.95-5.47V54.54Zm-16.78-5.26-7.63,3.46c-2.09.93-4.32,2.08-4.32,5.47,0,3,1.37,4.53,4.32,4.53,4.9,0,7.63-4.17,7.63-8.78Z"></path>
  <path class="cls-2" d="M504.11,38.12V33.59c7.34-.51,9.22-7,9.87-13.61h4.46V33.37h9.5v4.75h-9.29V59.36c0,1.44.8,2.37,2.74,2.37,2.23,0,3.1-1.22,3.1-4.1V51.22h4.75v6.05c0,7.56-4.18,10.87-9.87,10.87-5.39,0-9.21-2.23-9.21-8v-22Z"></path>
  <path class="cls-2" d="M540.91,51.08c-.21,5.62,1.51,11.66,8.21,11.66,5.18,0,7.77-2.66,8.71-7.63h6c-.93,8.21-5.9,13-15.47,13-11.16,0-17.06-6.26-17.06-17.92,0-10.51,6.76-17.93,16.7-17.93,11.8,0,16.77,10.58,16,18.79Zm13.39-4.75c.07-4.54-1.37-9-6.48-9-4.89,0-6.69,4.46-6.91,9Z"></path>
  <path class="cls-2" d="M167.49,131.06v-5.33h5c2.23,0,2.95-.71,2.95-2.59V91.25c0-1.87-.72-2.59-2.95-2.59h-5V83.33h31.32c10.44,0,15.33,4.11,15.33,12,0,7.42-6.26,11-13.53,11.67v.14c7.56.94,9.29,4.25,9.29,9.86,0,7.63,1.72,8.78,2.95,8.78,1.73,0,2.45-1.51,2.45-5.75v-2.24h4.75V120c0,9.21-4,12.52-9.94,12.52-7.12,0-9.28-3.88-9.28-9.79,0-11.52-2.6-14-11-14h-4.25v14.47c0,1.88.72,2.59,3,2.59h5.25v5.33Zm18.07-27.71h8.5c7.77,0,10-2.52,10-7.85,0-4.46-3-7-9.29-7h-9.22Z"></path>
  <path class="cls-2" d="M230.94,115.08c-.22,5.62,1.51,11.66,8.21,11.66,5.18,0,7.77-2.66,8.71-7.63h6c-.93,8.21-5.9,13-15.47,13-11.16,0-17.07-6.26-17.07-17.92,0-10.51,6.77-17.93,16.71-17.93,11.8,0,16.77,10.58,16,18.79Zm13.39-4.75c.07-4.54-1.37-9-6.48-9-4.89,0-6.69,4.46-6.91,9Z"></path>
  <path class="cls-2" d="M294.66,118.54v2.16c0,8.06-3.24,11.44-9.28,11.44-3.6,0-6.7-1.51-7.27-5.33-2.67,4-7.27,5.33-11.81,5.33-5.62,0-10-2.66-10-9.14,0-14,21.6-7.2,21.6-17.35,0-4.61-3.89-5.47-7.7-5.47-2,0-5.4.65-6.7,2.37,2.67-.36,4.75.8,4.75,3.75,0,3.24-2.23,4.25-5,4.25a5.11,5.11,0,0,1-5.18-5.33c0-7.34,8.78-8.93,14.47-8.93,9.72,0,13.9,4.39,13.9,10.44v17.64c0,1.58.64,2.37,1.72,2.37s1.95-1,1.95-5.47v-2.73Zm-16.77-5.26-7.63,3.46c-2.09.93-4.32,2.08-4.32,5.47,0,3,1.37,4.53,4.32,4.53,4.9,0,7.63-4.17,7.63-8.78Z"></path>
  <path class="cls-2" d="M295.08,131.06v-4.75h3.52c2,0,2.88-.79,2.88-2.88V91c0-2.08-.86-2.88-2.88-2.88h-3.52V83.33H310v40.1c0,2.09.86,2.88,2.88,2.88h3.38v4.75Z"></path>
  <path class="cls-2" d="M317.77,131.06v-4.75h3.31c2,0,2.88-.79,2.88-2.88V105c0-2.09-.87-2.88-2.88-2.88h-3.31V97.37h14.68v26.06c0,2.09.87,2.88,2.88,2.88h3.53v4.75Zm9.5-48.59a5.19,5.19,0,1,1-5.18,5.18A5.2,5.2,0,0,1,327.27,82.47Z"></path>
  <path class="cls-2" d="M335.38,102.12V97.59c7.35-.51,9.22-7,9.87-13.61h4.46V97.37h9.5v4.75h-9.28v21.24c0,1.44.79,2.37,2.73,2.37,2.23,0,3.1-1.22,3.1-4.1v-6.41h4.75v6c0,7.56-4.18,10.87-9.87,10.87-5.39,0-9.21-2.23-9.21-8v-22Z"></path>
  <path class="cls-2" d="M361.6,97.37h20.81v4.75h-3.1c-1.22,0-2.09.51-2.09,1.59a8.29,8.29,0,0,0,.65,2L384.35,121h.15l6-14.61a6.54,6.54,0,0,0,.65-2.52c0-.94-1-1.73-2.3-1.73h-3.1V97.37h17.35v4.75c-2.59,0-4.75.51-5.9,3.24L385.5,133.08c-4,9.43-7.7,13.24-14.4,13.24-5,0-9.57-3-9.57-8.71,0-3.52,1.94-6.33,5.54-6.33a4.75,4.75,0,0,1,5,4.53c0,2.24-1.58,4.11-3.53,4.11-.57,0-1.29-.07-1.87-.07a3.76,3.76,0,0,0,3.53,1.72c4.32,0,6.41-2.23,7.77-5.25l2.38-5.26-12.17-26.13c-.86-1.87-2.88-2.81-6.55-2.81Z"></path>
  <path class="cls-2" d="M420.09,131.06v-5.33h4.61c1.65,0,3.09-.57,3.09-2.44V91.11c0-1.87-1.44-2.45-3.09-2.45h-4.61V83.33h28.22c10.8,0,17,5,17,13.11,0,8.85-6.48,13-16.13,13h-11.3v13.83c0,1.87,1.8,2.44,3.46,2.44h4.6v5.33Zm17.78-26.92h6.55c6.77,0,10.37-2.09,10.37-7.63s-2.88-7.85-10.37-7.85h-6.55Z"></path>
  <path class="cls-2" d="M482.45,102.84h.14c2.88-4.32,5.11-6.55,9-6.55,4.61,0,8.71,2.67,8.71,7.92,0,3.24-1.94,6.05-5.47,6.05-2.81,0-5.11-1.66-5.11-4.61,0-2.74,2.16-4.25,4.75-4.32a3.89,3.89,0,0,0-3-1c-5.91,0-8.93,5.91-8.93,11.09v12c0,2.09.86,2.88,2.88,2.88h4.53v4.75H467.18v-4.75h4c2,0,2.87-.79,2.87-2.88V105c0-2.09-.86-2.88-2.87-2.88h-4V97.37h15.27Z"></path>
  <path class="cls-2" d="M520.61,96.29c10.81,0,18.51,6.48,18.51,17.93s-7.7,17.92-18.51,17.92-18.5-6.48-18.5-17.92S509.82,96.29,520.61,96.29Zm0,31.1c5.84,0,8.86-4.53,8.86-13.17s-3-13.18-8.86-13.18-8.85,4.54-8.85,13.18S514.78,127.39,520.61,127.39Z"></path>
  <path class="cls-2" d="M555.7,136.25c0,7.7-6,10.07-12.23,10.07-4.47,0-8.93-2.52-8.93-7.48a4.69,4.69,0,0,1,4.61-4.61c2.52,0,4.53,1.58,4.53,4.18,0,2.08-2.16,3.52-4,3.67a3.53,3.53,0,0,0,2.23.79c3,0,5.33-.94,5.33-4.46V105c0-2.09-.86-2.88-2.88-2.88h-4.18V97.37H555.7Zm-5.18-53.78a5.19,5.19,0,1,1-5.18,5.18A5.2,5.2,0,0,1,550.52,82.47Z"></path>
  <path class="cls-2" d="M569.41,115.08c-.21,5.62,1.51,11.66,8.21,11.66,5.18,0,7.77-2.66,8.71-7.63h6c-.94,8.21-5.91,13-15.48,13-11.16,0-17.06-6.26-17.06-17.92,0-10.51,6.76-17.93,16.7-17.93,11.8,0,16.77,10.58,16,18.79Zm13.39-4.75c.07-4.54-1.37-9-6.48-9-4.89,0-6.69,4.46-6.91,9Z"></path>
  <path class="cls-2" d="M628.45,117.24c-.65,9.65-5.69,14.9-15.48,14.9-11.09,0-16.92-6.41-16.92-18a17.6,17.6,0,0,1,17.78-17.85c8.35,0,14.83,4.54,14.83,10.58,0,3.17-2.09,6-5.18,6-2.52,0-5.62-1.3-5.62-4.32s1.37-4.46,4.25-4.68c-1.58-2.09-4-2.81-6.84-2.81-7.49,0-9.57,7.06-9.57,12.53s1.8,12.53,9.28,12.53c4.32,0,7.35-3.68,7.85-8.86Z"></path>
  <path class="cls-2" d="M630.62,102.12V97.59c7.34-.51,9.22-7,9.87-13.61H645V97.37h9.5v4.75h-9.29v21.24c0,1.44.79,2.37,2.74,2.37,2.23,0,3.1-1.22,3.1-4.1v-6.41h4.75v6c0,7.56-4.18,10.87-9.87,10.87-5.39,0-9.21-2.23-9.21-8v-22Z">
  </path>
  
  <path class="cls-2" d="M651.56,83.46v0a6.19,6.19,0,0,1,12.38,0v0a6.19,6.19,0,0,1-12.38,0Zm11.82,0v0a5.63,5.63,0,1,0-11.26,0v0a5.63,5.63,0,1,0,11.26,0Zm-8.06-3.35h2.84a2.64,2.64,0,0,1,1.88.66,1.66,1.66,0,0,1,.51,1.23v0a1.87,1.87,0,0,1-1.64,1.86l2,2.55h-1.16L657.89,84h-1.63v2.4h-.94Zm2.75,3.11c.89,0,1.51-.41,1.51-1.13v0c0-.67-.55-1.1-1.45-1.1h-1.87v2.26Z">
  </path></svg>